<svg width="233" height="99" viewBox="0 0 233 99" fill="none" xmlns="http://www.w3.org/2000/svg">
<path d="M76.9996 38.3L69.6996 29.4L67.6996 26.1L69.2996 22L59.5996 30.2L66.8996 39L68.8996 42.3L67.2996 46.4L76.9996 38.3Z" fill="url(#paint0_linear_12_111091)"/>
<path d="M62.8996 34.3L51.4996 34.5L47.6996 34L45.5996 30.2L45.8996 42.9L57.2996 42.7L61.0996 43.2L63.1996 47L62.8996 34.3Z" fill="url(#paint1_linear_12_111091)"/>
<path d="M51 42.8999L44.1 51.9999L41.4 54.7999L37 54.0999L47.1 61.6999L54 52.5999L56.7 49.8999L61.1 50.5999L51 42.8999Z" fill="url(#paint2_linear_12_111091)"/>
<path d="M50.2992 57.6L52.9992 68.7L53.4992 72.5L50.1992 75.5L62.3992 72.3L59.5992 61.2L59.0992 57.4L62.3992 54.5L50.2992 57.6Z" fill="url(#paint3_linear_12_111091)"/>
<path d="M61.3008 67.3L71.6008 72.1L74.9008 74.2001L75.2008 78.6L80.3008 67L69.9008 62.2001L66.6008 60.2001L66.3008 55.8L61.3008 67.3Z" fill="url(#paint4_linear_12_111091)"/>
<path d="M75.7008 64.7001L85.9008 59.6001L89.5008 58.3001L93.1008 60.8001L87.3008 49.6001L77.1008 54.7001L73.4008 56.0001L69.8008 53.5001L75.7008 64.7001Z" fill="url(#paint5_linear_12_111091)"/>
<path d="M82.7008 51.7999L85.0008 40.6L86.3008 36.9L90.5008 35.7L78.1008 33.2L75.8008 44.4L74.5008 48.1L70.3008 49.2999L82.7008 51.7999Z" fill="url(#paint6_linear_12_111091)"/>
<path d="M104.736 45V25.4H110.476L115.152 32.988L119.828 25.4H125.568V45H120.164V33.744L115.152 41.416H115.04L110.056 33.8V45H104.736ZM133.077 45.336C130.193 45.336 127.981 43.684 127.981 40.66V40.604C127.981 37.468 130.361 35.844 133.917 35.844C135.317 35.844 136.689 36.124 137.557 36.432V36.18C137.557 34.612 136.577 33.716 134.533 33.716C132.937 33.716 131.705 34.024 130.361 34.556L129.269 30.804C130.977 30.104 132.797 29.628 135.401 29.628C138.117 29.628 139.965 30.272 141.169 31.476C142.317 32.596 142.793 34.164 142.793 36.292V45H137.529V43.432C136.493 44.58 135.065 45.336 133.077 45.336ZM134.981 42.004C136.521 42.004 137.613 41.024 137.613 39.512V38.812C137.081 38.588 136.325 38.42 135.541 38.42C134.001 38.42 133.105 39.176 133.105 40.296V40.352C133.105 41.388 133.889 42.004 134.981 42.004ZM145.498 28.48V24.56H151.042V28.48H145.498ZM145.61 45V29.852H150.93V45H145.61ZM160.025 45.336C156.441 45.336 153.333 42.34 153.333 37.496V37.44C153.333 32.512 156.413 29.516 159.997 29.516C162.293 29.516 163.637 30.552 164.645 31.7V24.56H169.965V45H164.645V42.984C163.609 44.244 162.293 45.336 160.025 45.336ZM161.649 40.884C163.357 40.884 164.729 39.456 164.729 37.44V37.384C164.729 35.396 163.357 33.968 161.649 33.968C159.941 33.968 158.541 35.368 158.541 37.384V37.44C158.541 39.456 159.941 40.884 161.649 40.884ZM177.155 45.336C174.271 45.336 172.059 43.684 172.059 40.66V40.604C172.059 37.468 174.439 35.844 177.995 35.844C179.395 35.844 180.767 36.124 181.635 36.432V36.18C181.635 34.612 180.655 33.716 178.611 33.716C177.015 33.716 175.783 34.024 174.439 34.556L173.347 30.804C175.055 30.104 176.875 29.628 179.479 29.628C182.195 29.628 184.043 30.272 185.247 31.476C186.395 32.596 186.871 34.164 186.871 36.292V45H181.607V43.432C180.571 44.58 179.143 45.336 177.155 45.336ZM179.059 42.004C180.599 42.004 181.691 41.024 181.691 39.512V38.812C181.159 38.588 180.403 38.42 179.619 38.42C178.079 38.42 177.183 39.176 177.183 40.296V40.352C177.183 41.388 177.967 42.004 179.059 42.004ZM103.168 76L111.512 56.26H116.748L125.092 76H119.268L117.84 72.5H110.28L108.88 76H103.168ZM111.876 68.272H116.272L114.088 62.7L111.876 68.272ZM132.107 76.336C128.523 76.336 125.415 73.34 125.415 68.496V68.44C125.415 63.512 128.495 60.516 132.079 60.516C134.375 60.516 135.719 61.552 136.727 62.7V55.56H142.047V76H136.727V73.984C135.691 75.244 134.375 76.336 132.107 76.336ZM133.731 71.884C135.439 71.884 136.811 70.456 136.811 68.44V68.384C136.811 66.396 135.439 64.968 133.731 64.968C132.023 64.968 130.623 66.368 130.623 68.384V68.44C130.623 70.456 132.023 71.884 133.731 71.884ZM144.897 76V60.852H150.217V62.924C151.197 61.664 152.597 60.516 154.725 60.516C156.741 60.516 158.281 61.412 159.093 62.98C160.409 61.468 161.949 60.516 164.161 60.516C167.381 60.516 169.341 62.532 169.341 66.06V76H164.021V67.768C164.021 66.116 163.209 65.248 161.949 65.248C160.689 65.248 159.765 66.116 159.765 67.768V76H154.445V67.768C154.445 66.116 153.633 65.248 152.373 65.248C151.113 65.248 150.217 66.116 150.217 67.768V76H144.897ZM172.076 59.48V55.56H177.62V59.48H172.076ZM172.188 76V60.852H177.508V76H172.188ZM180.471 76V60.852H185.791V62.98C186.771 61.72 188.171 60.516 190.327 60.516C193.547 60.516 195.479 62.644 195.479 66.088V76H190.159V67.796C190.159 66.144 189.291 65.248 188.031 65.248C186.743 65.248 185.791 66.144 185.791 67.796V76H180.471Z" fill="#019B3B"/>
<defs>
<linearGradient id="paint0_linear_12_111091" x1="76.9683" y1="22.1344" x2="54.1233" y2="38.564" gradientUnits="userSpaceOnUse">
<stop/>
<stop offset="1" stop-color="#00FF62"/>
</linearGradient>
<linearGradient id="paint1_linear_12_111091" x1="63.168" y1="30.2925" x2="46.6013" y2="47.7956" gradientUnits="userSpaceOnUse">
<stop/>
<stop offset="1" stop-color="#00FF62"/>
</linearGradient>
<linearGradient id="paint2_linear_12_111091" x1="61.0567" y1="43.0034" x2="43.0857" y2="66.2367" gradientUnits="userSpaceOnUse">
<stop/>
<stop offset="1" stop-color="#00FF62"/>
</linearGradient>
<linearGradient id="paint3_linear_12_111091" x1="62.3773" y1="54.6157" x2="44.2853" y2="65.2157" gradientUnits="userSpaceOnUse">
<stop/>
<stop offset="1" stop-color="#00FF62"/>
</linearGradient>
<linearGradient id="paint4_linear_12_111091" x1="80.2666" y1="55.9256" x2="58.0853" y2="74.5673" gradientUnits="userSpaceOnUse">
<stop/>
<stop offset="1" stop-color="#00FF62"/>
</linearGradient>
<linearGradient id="paint5_linear_12_111091" x1="93.0589" y1="49.6833" x2="79.4942" y2="70.7922" gradientUnits="userSpaceOnUse">
<stop/>
<stop offset="1" stop-color="#00FF62"/>
</linearGradient>
<linearGradient id="paint6_linear_12_111091" x1="90.4645" y1="33.3024" x2="72.1708" y2="53.3387" gradientUnits="userSpaceOnUse">
<stop/>
<stop offset="1" stop-color="#00FF62"/>
</linearGradient>
</defs>
</svg>
