<svg width="233" height="99" viewBox="0 0 233 99" fill="none" xmlns="http://www.w3.org/2000/svg">
<path d="M80.9996 38.3L73.6996 29.4L71.6996 26.1L73.2996 22L63.5996 30.2L70.8996 39L72.8996 42.3L71.2996 46.4L80.9996 38.3Z" fill="url(#paint0_linear_12_111168)"/>
<path d="M66.8996 34.3L55.4996 34.5L51.6996 34L49.5996 30.2L49.8996 42.9L61.2996 42.7L65.0996 43.2L67.1996 47L66.8996 34.3Z" fill="url(#paint1_linear_12_111168)"/>
<path d="M55 42.8999L48.1 51.9999L45.4 54.7999L41 54.0999L51.1 61.6999L58 52.5999L60.7 49.8999L65.1 50.5999L55 42.8999Z" fill="url(#paint2_linear_12_111168)"/>
<path d="M54.2992 57.6L56.9992 68.7L57.4992 72.5L54.1992 75.5L66.3992 72.3L63.5992 61.2L63.0992 57.4L66.3992 54.5L54.2992 57.6Z" fill="url(#paint3_linear_12_111168)"/>
<path d="M65.3008 67.3L75.6008 72.1L78.9008 74.2001L79.2008 78.6L84.3008 67L73.9008 62.2001L70.6008 60.2001L70.3008 55.8L65.3008 67.3Z" fill="url(#paint4_linear_12_111168)"/>
<path d="M79.7008 64.7001L89.9008 59.6001L93.5008 58.3001L97.1008 60.8001L91.3008 49.6001L81.1008 54.7001L77.4008 56.0001L73.8008 53.5001L79.7008 64.7001Z" fill="url(#paint5_linear_12_111168)"/>
<path d="M86.7008 51.7999L89.0008 40.6L90.3008 36.9L94.5008 35.7L82.1008 33.2L79.8008 44.4L78.5008 48.1L74.3008 49.2999L86.7008 51.7999Z" fill="url(#paint6_linear_12_111168)"/>
<path d="M108.736 45V25.4H114.476L119.152 32.988L123.828 25.4H129.568V45H124.164V33.744L119.152 41.416H119.04L114.056 33.8V45H108.736ZM137.077 45.336C134.193 45.336 131.981 43.684 131.981 40.66V40.604C131.981 37.468 134.361 35.844 137.917 35.844C139.317 35.844 140.689 36.124 141.557 36.432V36.18C141.557 34.612 140.577 33.716 138.533 33.716C136.937 33.716 135.705 34.024 134.361 34.556L133.269 30.804C134.977 30.104 136.797 29.628 139.401 29.628C142.117 29.628 143.965 30.272 145.169 31.476C146.317 32.596 146.793 34.164 146.793 36.292V45H141.529V43.432C140.493 44.58 139.065 45.336 137.077 45.336ZM138.981 42.004C140.521 42.004 141.613 41.024 141.613 39.512V38.812C141.081 38.588 140.325 38.42 139.541 38.42C138.001 38.42 137.105 39.176 137.105 40.296V40.352C137.105 41.388 137.889 42.004 138.981 42.004ZM149.498 28.48V24.56H155.042V28.48H149.498ZM149.61 45V29.852H154.93V45H149.61ZM164.025 45.336C160.441 45.336 157.333 42.34 157.333 37.496V37.44C157.333 32.512 160.413 29.516 163.997 29.516C166.293 29.516 167.637 30.552 168.645 31.7V24.56H173.965V45H168.645V42.984C167.609 44.244 166.293 45.336 164.025 45.336ZM165.649 40.884C167.357 40.884 168.729 39.456 168.729 37.44V37.384C168.729 35.396 167.357 33.968 165.649 33.968C163.941 33.968 162.541 35.368 162.541 37.384V37.44C162.541 39.456 163.941 40.884 165.649 40.884ZM181.155 45.336C178.271 45.336 176.059 43.684 176.059 40.66V40.604C176.059 37.468 178.439 35.844 181.995 35.844C183.395 35.844 184.767 36.124 185.635 36.432V36.18C185.635 34.612 184.655 33.716 182.611 33.716C181.015 33.716 179.783 34.024 178.439 34.556L177.347 30.804C179.055 30.104 180.875 29.628 183.479 29.628C186.195 29.628 188.043 30.272 189.247 31.476C190.395 32.596 190.871 34.164 190.871 36.292V45H185.607V43.432C184.571 44.58 183.143 45.336 181.155 45.336ZM183.059 42.004C184.599 42.004 185.691 41.024 185.691 39.512V38.812C185.159 38.588 184.403 38.42 183.619 38.42C182.079 38.42 181.183 39.176 181.183 40.296V40.352C181.183 41.388 181.967 42.004 183.059 42.004ZM118.592 76.392C112.544 76.392 108.064 71.884 108.064 66.256V66.2C108.064 60.572 112.6 56.008 118.648 56.008C124.696 56.008 129.176 60.516 129.176 66.144V66.2C129.176 71.828 124.64 76.392 118.592 76.392ZM118.648 71.492C121.644 71.492 123.632 69.084 123.632 66.256V66.2C123.632 63.372 121.588 60.908 118.592 60.908C115.624 60.908 113.636 63.316 113.636 66.144V66.2C113.636 69.028 115.68 71.492 118.648 71.492ZM131.698 76V60.852H137.018V62.98C137.998 61.72 139.398 60.516 141.554 60.516C144.774 60.516 146.706 62.644 146.706 66.088V76H141.386V67.796C141.386 66.144 140.518 65.248 139.258 65.248C137.97 65.248 137.018 66.144 137.018 67.796V76H131.698ZM149.556 76V55.56H154.876V76H149.556ZM157.838 59.48V55.56H163.382V59.48H157.838ZM157.95 76V60.852H163.27V76H157.95ZM166.233 76V60.852H171.553V62.98C172.533 61.72 173.933 60.516 176.089 60.516C179.309 60.516 181.241 62.644 181.241 66.088V76H175.921V67.796C175.921 66.144 175.053 65.248 173.793 65.248C172.505 65.248 171.553 66.144 171.553 67.796V76H166.233ZM191.483 76.364C186.723 76.364 183.363 73.2 183.363 68.496V68.44C183.363 64.016 186.527 60.516 191.007 60.516C196.243 60.516 198.651 64.352 198.651 68.804C198.651 69.14 198.651 69.532 198.623 69.896H188.487C188.907 71.548 190.111 72.388 191.763 72.388C193.023 72.388 194.031 71.912 195.123 70.848L198.063 73.284C196.607 75.132 194.507 76.364 191.483 76.364ZM188.403 67.18H193.667C193.471 65.5 192.491 64.436 191.035 64.436C189.635 64.436 188.683 65.528 188.403 67.18Z" fill="#00FFD4"/>
<defs>
<linearGradient id="paint0_linear_12_111168" x1="80.9683" y1="22.1344" x2="58.1233" y2="38.564" gradientUnits="userSpaceOnUse">
<stop/>
<stop offset="1" stop-color="#00FFD4"/>
</linearGradient>
<linearGradient id="paint1_linear_12_111168" x1="67.168" y1="30.2925" x2="50.6013" y2="47.7956" gradientUnits="userSpaceOnUse">
<stop/>
<stop offset="1" stop-color="#00FFD4"/>
</linearGradient>
<linearGradient id="paint2_linear_12_111168" x1="65.0567" y1="43.0034" x2="47.0857" y2="66.2367" gradientUnits="userSpaceOnUse">
<stop/>
<stop offset="1" stop-color="#00FFD4"/>
</linearGradient>
<linearGradient id="paint3_linear_12_111168" x1="66.3773" y1="54.6157" x2="48.2853" y2="65.2157" gradientUnits="userSpaceOnUse">
<stop/>
<stop offset="1" stop-color="#00FFD4"/>
</linearGradient>
<linearGradient id="paint4_linear_12_111168" x1="84.2666" y1="55.9256" x2="62.0853" y2="74.5673" gradientUnits="userSpaceOnUse">
<stop/>
<stop offset="1" stop-color="#00FFD4"/>
</linearGradient>
<linearGradient id="paint5_linear_12_111168" x1="97.0589" y1="49.6833" x2="83.4942" y2="70.7922" gradientUnits="userSpaceOnUse">
<stop/>
<stop offset="1" stop-color="#00FFD4"/>
</linearGradient>
<linearGradient id="paint6_linear_12_111168" x1="94.4645" y1="33.3024" x2="76.1708" y2="53.3387" gradientUnits="userSpaceOnUse">
<stop/>
<stop offset="1" stop-color="#00FFD4"/>
</linearGradient>
</defs>
</svg>
